<svg xmlns="http://www.w3.org/2000/svg" version="1.1" xmlns:xlink="http://www.w3.org/1999/xlink"
     xmlns:svgjs="http://svgjs.dev/svgjs" width="1000" height="1125" viewBox="0 0 1000 1125">
    <g transform="matrix(1,0,0,1,0.0011008540699322111,0)">
        <svg viewBox="0 0 320 360" data-background-color="#ffffff" preserveAspectRatio="xMidYMid meet" height="1125"
             width="1000" xmlns="http://www.w3.org/2000/svg" xmlns:xlink="http://www.w3.org/1999/xlink">
            <g id="tight-bounds" transform="matrix(1,0,0,1,0.00010353528136874957,0)">
                <svg viewBox="0 0 320 360" height="360" width="320">
                    <g>
                        <svg></svg>
                    </g>
                    <g>
                        <svg viewBox="0 0 320 360" height="360" width="320">
                            <g>
                                <path xmlns="http://www.w3.org/2000/svg"
                                      d="M307.925 179.999l6.575-11.387c11.322-19.607 4.604-44.679-15.003-56.001l-11.387-6.575v-13.151c0-22.639-18.354-40.994-40.994-40.994h-13.151l-6.575-11.387c-11.322-19.607-36.393-26.325-56.001-15.003l-11.39 6.572-11.387-6.576c-19.607-11.318-44.679-4.6-56.001 15.007l-6.575 11.387h-13.151c-22.639 0-40.994 18.354-40.994 40.994v13.151l-11.387 6.575c-19.607 11.322-26.325 36.393-15.003 56.001l6.572 11.387-6.576 11.387c-11.318 19.607-4.6 44.679 15.007 56l11.387 6.576v13.15c0 22.639 18.354 40.994 40.994 40.994h13.151l6.575 11.387c11.322 19.607 36.393 26.325 56.001 15.003l11.387-6.571 11.387 6.575c19.607 11.322 44.679 4.604 56-15.003l6.576-11.387h13.15c22.639 0 40.994-18.354 40.994-40.994v-13.151l11.387-6.575c19.607-11.322 26.325-36.393 15.003-56.001zM297.702 115.716c8.655 4.996 14.842 13.062 17.428 22.713 2.586 9.65 1.261 19.734-3.735 28.384l-5.538 9.596-17.747-30.74v-35.494zM251.155 271.155l-57.791 33.365h-66.731l-57.791-33.365-33.365-57.791v-66.731l33.365-57.791 57.791-33.365h66.731l57.791 33.365 33.365 57.791v66.731zM284.517 220.539v31.351l-27.151 15.676zM247.566 277.366l-15.676 27.151h-31.351zM187.15 308.106l-27.151 15.676-27.151-15.676zM119.459 304.517h-31.352l-15.676-27.151zM62.632 267.566l-27.151-15.676v-31.351zM31.891 207.15l-15.675-27.151 15.675-27.151zM35.481 139.459v-31.352l27.151-15.676zM72.431 82.632l15.676-27.151h31.352zM132.848 51.891l27.151-15.675 27.151 15.675zM200.539 55.481h31.351l15.676 27.151zM257.366 92.431l27.151 15.676v31.352zM288.106 152.848l15.676 27.151-15.676 27.151zM247.112 55.481c9.992 0 19.384 3.889 26.452 10.956 7.063 7.063 10.956 16.46 10.957 26.452v11.079l-30.741-17.747-17.747-30.74zM173.18 28.606c8.655-4.996 18.735-6.322 28.385-3.735 9.65 2.586 17.716 8.777 22.712 17.428l5.538 9.596h-35.494l-30.741-17.747zM95.716 42.295c4.996-8.655 13.062-14.842 22.713-17.428 9.65-2.586 19.734-1.261 28.384 3.736l9.596 5.537-30.74 17.747h-35.494zM35.481 92.885c0-9.992 3.889-19.384 10.956-26.452 7.063-7.063 16.46-10.956 26.452-10.956h11.079l-17.747 30.74-30.74 17.747zM8.606 166.817c-4.996-8.655-6.322-18.735-3.735-28.385 2.586-9.65 8.777-17.716 17.428-22.712l9.596-5.538v35.495l-17.747 30.74zM22.295 244.281c-8.655-4.996-14.842-13.062-17.428-22.712-2.586-9.65-1.261-19.734 3.736-28.385l5.537-9.596 17.747 30.74v35.495zM72.885 304.517c-9.992 0-19.384-3.889-26.452-10.957-7.063-7.063-10.956-16.46-10.956-26.451v-11.08l30.74 17.747 17.747 30.741zM146.817 331.391c-8.655 4.996-18.735 6.322-28.385 3.735-9.65-2.586-17.716-8.777-22.712-17.428l-5.538-9.596h35.495l30.74 17.747zM224.281 317.702c-4.996 8.655-13.062 14.842-22.712 17.428-9.65 2.586-19.734 1.261-28.385-3.735l-9.596-5.538 30.74-17.747h35.495zM284.517 267.112c0 9.992-3.889 19.384-10.957 26.452-7.063 7.063-16.46 10.956-26.451 10.957h-11.08l17.747-30.741 30.741-17.747zM315.13 221.565c-2.586 9.65-8.777 17.716-17.428 22.712l-9.596 5.538v-35.494l17.747-30.741 5.538 9.596c4.996 8.658 6.326 18.739 3.739 28.389z"
                                      fill="#000000" fill-rule="nonzero" stroke="none" stroke-width="1"
                                      stroke-linecap="butt" stroke-linejoin="miter" stroke-miterlimit="10"
                                      stroke-dasharray="" stroke-dashoffset="0" font-family="none" font-weight="none"
                                      font-size="none" text-anchor="none" style="mix-blend-mode: normal"
                                      data-fill-palette-color="tertiary"></path>
                            </g>
                            <g transform="matrix(1,0,0,1,64.00000000000001,141.84478935698448)">
                                <svg viewBox="0 0 191.99999999999997 76.31042128603103" height="76.31042128603103"
                                     width="191.99999999999997">
                                    <g>
                                        <svg viewBox="0 0 191.99999999999997 76.31042128603103"
                                             height="76.31042128603103" width="191.99999999999997">
                                            <g>
                                                <svg viewBox="0 0 191.99999999999997 76.31042128603103"
                                                     height="76.31042128603103" width="191.99999999999997">
                                                    <g id="textblocktransform">
                                                        <svg viewBox="0 0 191.99999999999997 76.31042128603103"
                                                             height="76.31042128603103" width="191.99999999999997"
                                                             id="textblock">
                                                            <g>
                                                                <svg viewBox="0 0 191.99999999999997 76.31042128603103"
                                                                     height="76.31042128603103"
                                                                     width="191.99999999999997">
                                                                    <g transform="matrix(1,0,0,1,0,0)">
                                                                        <svg width="191.99999999999997"
                                                                             viewBox="1.7999999523162842 -35.04999923706055 90.18999481201172 35.849998474121094"
                                                                             height="76.31042128603103"
                                                                             data-palette-color="#77d4ff">
                                                                            <path d="M5.7 0.45Q4.3 0.45 3.25-0.38 2.2-1.2 1.8-2.65L1.8-2.65 3.75-2.95Q3.95-2.4 4.5-1.98 5.05-1.55 5.75-1.55L5.75-1.55Q6.35-1.55 6.88-1.98 7.4-2.4 7.6-2.9L7.6-2.9 20.85-34.6 21.25-34.6 35.7-0.05 33.45-0.05 28.6-11.7 13.4-11.7 9.5-2.1Q9-0.85 8-0.2 7 0.45 5.7 0.45L5.7 0.45ZM14.25-13.7L27.7-13.7 21.95-28.1 21-31.25 20.05-28 14.25-13.7ZM51.1-25.25Q51.8-25.25 53.7-24.9L53.7-24.9 53.7-23Q52.25-23.25 51.2-23.25L51.2-23.25Q48.35-23.25 46.6-21.85L46.6-21.85Q45.85-21.2 45-20.18 44.15-19.15 43.55-18L43.55-18 43.55-0.05 41.45-0.05 41.45-18.1Q41.45-20.3 41-21.58 40.55-22.85 39.6-24.05L39.6-24.05 41-25.4Q42.1-24.35 42.77-23.03 43.45-21.7 43.55-20.25L43.55-20.25Q44.2-21.55 45.1-22.6 46-23.65 46.9-24.2L46.9-24.2Q48.6-25.25 51.1-25.25L51.1-25.25ZM60.7-3.8Q60.7-2.6 61.25-2 61.8-1.4 62.7-1.4L62.7-1.4Q63.55-1.4 64.2-2.2L64.2-2.2 65.75-1.1Q64.59 0.5 62.65 0.5L62.65 0.5Q60.85 0.5 59.72-0.68 58.6-1.85 58.6-3.85L58.6-3.85 58.6-25 60.7-25 60.7-3.8ZM59.65-28.75Q58.85-28.75 58.35-29.25 57.85-29.75 57.85-30.55L57.85-30.55Q57.85-31.35 58.35-31.85 58.85-32.35 59.65-32.35L59.65-32.35Q60.45-32.35 60.97-31.85 61.5-31.35 61.5-30.55L61.5-30.55Q61.5-29.75 60.97-29.25 60.45-28.75 59.65-28.75L59.65-28.75ZM80.39 0.8Q76.19 0.8 72.92-1.48 69.64-3.75 68.49-7.45L68.49-7.45 70.39-8.2Q71.34-5.05 74.12-3.13 76.89-1.2 80.44-1.2L80.44-1.2Q83.09-1.2 85.24-2.33 87.39-3.45 88.62-5.43 89.84-7.4 89.84-9.85L89.84-9.85Q89.84-11.75 88.97-13.18 88.09-14.6 86.04-15.9 83.99-17.2 80.29-18.75L80.29-18.75Q77.04-20.1 75.27-21.3 73.49-22.5 72.72-23.85 71.94-25.2 71.94-27.05L71.94-27.05Q71.94-29.3 73.14-31.13 74.34-32.95 76.47-34 78.59-35.05 81.19-35.05L81.19-35.05Q84.59-35.05 86.74-33.45 88.89-31.85 88.89-29.25L88.89-29.25Q88.89-27.3 87.59-26.08 86.29-24.85 84.59-25.05L84.59-25.05 84.74-26.95Q85.64-26.85 86.22-27.48 86.79-28.1 86.79-29.15L86.79-29.15Q86.79-30.85 85.22-31.95 83.64-33.05 81.29-33.05L81.29-33.05Q79.39-33.05 77.72-32.23 76.04-31.4 75.04-30.05 74.04-28.7 74.04-27.15L74.04-27.15Q74.04-25.7 74.64-24.73 75.24-23.75 76.79-22.8 78.34-21.85 81.39-20.55L81.39-20.55Q85.44-18.85 87.72-17.3 89.99-15.75 90.99-14 91.99-12.25 91.99-9.9L91.99-9.9Q91.99-6.8 90.49-4.38 88.99-1.95 86.37-0.58 83.74 0.8 80.39 0.8L80.39 0.8Z"
                                                                                  opacity="1"
                                                                                  transform="matrix(1,0,0,1,0,0)"
                                                                                  fill="#000000" class="wordmark-text-0"
                                                                                  data-fill-palette-color="primary"
                                                                                  id="text-0"></path>
                                                                        </svg>
                                                                    </g>
                                                                </svg>
                                                            </g>
                                                        </svg>
                                                    </g>
                                                </svg>
                                            </g>
                                        </svg>
                                    </g>
                                </svg>
                            </g>
                        </svg>
                    </g>
                    <defs></defs>
                </svg>
                <rect width="320" height="360" fill="none" stroke="none" visibility="hidden"></rect>
            </g>
        </svg>
    </g>
</svg>